<?xml version="1.0" encoding="UTF-8"?>
<svg id="Layer_3" data-name="Layer 3" xmlns="http://www.w3.org/2000/svg" xmlns:xlink="http://www.w3.org/1999/xlink" viewBox="0 0 176.2 176.19">
  <defs>
    <style>
      .cls-1 {
        fill: none;
      }

      .cls-1, .cls-2 {
        stroke-width: 0px;
      }

      .cls-2 {
        fill: #000;
        fill-rule: evenodd;
      }

      .cls-3 {
        clip-path: url(#clippath);
      }
    </style>
    <clipPath id="clippath">
      <rect class="cls-1" x="0" width="176" height="176"/>
    </clipPath>
  </defs>
  <g class="cls-3">
    <g id="Bag">
      <path id="Path_152" data-name="Path 152" class="cls-2" d="M110,77c-.34,5.73,4.02,10.66,9.75,11,.42.02.83.02,1.25,0,5.73.34,10.66-4.02,11-9.75.02-.42.02-.83,0-1.25.34-5.73-4.02-10.66-9.75-11-.42-.02-.83-.02-1.25,0-5.73-.34-10.66,4.02-11,9.75-.02.42-.02.83,0,1.25ZM44,77c-.34,5.73,4.02,10.66,9.75,11,.42.02.83.02,1.25,0,5.73.34,10.66-4.02,11-9.75.02-.42.02-.83,0-1.25.34-5.73-4.02-10.66-9.75-11-.42-.02-.83-.02-1.25,0-5.73-.34-10.66,4.02-11,9.75-.02.42-.02.83,0,1.25ZM165,53.9l11,110c.09,3.25-1.1,6.41-3.3,8.8-1.82,2.37-4.73,3.62-7.7,3.3H11c-2.97.32-5.88-.93-7.7-3.3-2.2-2.39-3.39-5.55-3.3-8.8L11,53.9c.85-5.5,5.45-9.64,11-9.9h22C44,19.7,63.7,0,88,0s44,19.7,44,44h22c5.55.26,10.15,4.4,11,9.9ZM110,44h-44c0-12.15,9.85-22,22-22s22,9.85,22,22Z"/>
    </g>
  </g>
</svg>