<?xml version="1.0" encoding="UTF-8"?>
<svg id="Layer_13" data-name="Layer 13" xmlns="http://www.w3.org/2000/svg" viewBox="0 0 187.87 177.65">
  <defs>
    <style>
      .cls-1 {
        fill: #dca670;
        stroke-width: 0px;
      }
    </style>
  </defs>
  <path id="Path_110" data-name="Path 110" class="cls-1" d="M106.12,120.97l16.17-14.82c1.08-1.04,2.56-1.53,4.04-1.35l2.7,1.35,37.73,17.52c2.7,1.35,2.7,2.7,2.7,5.39-1.35,10.78-4.04,18.86-10.78,24.25-7.57,7.3-17.79,11.19-28.3,10.78-13.15-.08-26.09-3.31-37.73-9.43-13.71-7.29-26.39-16.35-37.73-26.95-7.5-9.34-14.26-19.25-20.21-29.64-5.35-9.47-9.86-19.39-13.48-29.64-2.23-8.34-3.14-16.98-2.7-25.6.88-7.58,4.19-14.67,9.43-20.21,5.39-5.39,13.48-8.09,25.6-9.43,2.11.04,4.09,1.03,5.39,2.7l20.21,37.73c.14,1.02.61,1.97,1.35,2.7.18,1.48-.31,2.97-1.35,4.04l-17.52,16.17c-1.38,2.04-1.38,4.71,0,6.75,4.62,7.73,10.04,14.96,16.17,21.56,6.57,6.56,13.8,12.43,21.56,17.52,2.7,1.33,5.39,1.33,6.74-1.37Z"/>
</svg>