<?xml version="1.0" encoding="UTF-8"?>
<svg id="Layer_14" data-name="Layer 14" xmlns="http://www.w3.org/2000/svg" viewBox="0 0 187.87 177.65">
  <defs>
    <style>
      .cls-1 {
        fill: #dca670;
        fill-rule: evenodd;
        stroke-width: 0px;
      }
    </style>
  </defs>
  <path id="Path_3" data-name="Path 3" class="cls-1" d="M93.94,20.96c10.99-.41,21.99-.11,32.93.91,5.31-.07,10.58.86,15.55,2.74,6.85,3.19,12.36,8.7,15.55,15.55,1.88,4.97,2.81,10.24,2.74,15.55,0,8.23.91,10.98.91,32.93.41,10.99.11,21.99-.91,32.93.07,5.31-.86,10.58-2.74,15.55-3.19,6.85-8.7,12.36-15.55,15.55-4.97,1.88-10.24,2.81-15.55,2.74-8.23,0-10.98.91-32.93.91-10.99.41-21.99.11-32.93-.91-5.31.07-10.58-.86-15.55-2.74-6.85-3.19-12.36-8.7-15.55-15.55-1.88-4.97-2.81-10.24-2.74-15.55,0-8.23-.91-10.98-.91-32.93-.41-10.99-.11-21.99.91-32.93-.07-5.31.86-10.58,2.74-15.55,1.6-3.39,3.76-6.49,6.4-9.15,2.15-3.2,5.41-5.48,9.15-6.4,4.97-1.88,10.24-2.81,15.55-2.74,10.95-1.02,21.95-1.33,32.93-.91M93.94,6.32c-11.29-.4-22.59-.1-33.85.91-6.87-.02-13.69,1.22-20.12,3.66-5.55,1.81-10.58,4.95-14.64,9.15-4.2,4.06-7.34,9.08-9.15,14.63-2.87,6.3-4.13,13.22-3.66,20.12-1.01,11.25-1.32,22.56-.92,33.85-.4,11.29-.1,22.59.91,33.85-.02,6.87,1.22,13.69,3.66,20.12,1.81,5.55,4.95,10.58,9.15,14.64,4.06,4.2,9.09,7.34,14.64,9.15,6.43,2.43,13.25,3.67,20.12,3.66,11.25,1.01,22.56,1.32,33.85.92,11.29.4,22.59.1,33.85-.91,6.87.02,13.69-1.22,20.12-3.66,11.17-3.85,19.94-12.62,23.78-23.78,2.43-6.43,3.67-13.25,3.66-20.12,0-9.15.92-11.89.92-33.85.4-11.29.1-22.59-.91-33.85.02-6.87-1.22-13.69-3.66-20.12-1.81-5.55-4.95-10.58-9.15-14.64-4.06-4.2-9.09-7.34-14.64-9.15-6.43-2.44-13.25-3.68-20.13-3.66-11.25-1.01-22.56-1.32-33.85-.91M93.94,46.57c-22.86-.38-41.7,17.85-42.08,40.72,0,.45,0,.91,0,1.36,0,23.24,18.84,42.08,42.08,42.08s42.08-18.84,42.08-42.08-18.84-42.08-42.08-42.08M93.94,116.09c-14.88.27-27.17-11.57-27.44-26.45,0-.33,0-.66,0-.99-.27-14.88,11.57-27.17,26.45-27.44.33,0,.66,0,.99,0,14.88-.27,27.17,11.57,27.44,26.45,0,.33,0,.66,0,.99.27,14.88-11.57,27.17-26.45,27.44-.33,0-.66,0-.99,0M137.84,34.68c-5.56,0-10.06,4.5-10.06,10.06s4.5,10.06,10.06,10.06,10.06-4.5,10.06-10.06c-.05-5.54-4.53-10.01-10.06-10.06"/>
</svg>