<?xml version="1.0" encoding="UTF-8"?>
<svg id="Layer_14" data-name="Layer 14" xmlns="http://www.w3.org/2000/svg" viewBox="0 0 187.87 177.65">
  <defs>
    <style>
      .cls-1 {
        fill: #dca670;
        fill-rule: evenodd;
        stroke-width: 0px;
      }
    </style>
  </defs>
  <path id="Path_3" data-name="Path 3" class="cls-1" d="M93.94,23.42c10.59-.4,21.19-.1,31.73.88,5.12-.06,10.2.83,14.99,2.64,6.6,3.08,11.91,8.38,14.99,14.99,1.81,4.79,2.71,9.87,2.64,14.99,0,7.93.88,10.58.88,31.73.4,10.59.1,21.19-.88,31.73.06,5.12-.83,10.2-2.64,14.99-3.08,6.6-8.38,11.91-14.99,14.99-4.79,1.81-9.87,2.71-14.99,2.64-7.93,0-10.58.88-31.73.88-10.59.4-21.19.1-31.73-.88-5.12.06-10.2-.83-14.99-2.64-6.6-3.08-11.91-8.38-14.99-14.99-1.81-4.79-2.71-9.87-2.64-14.99,0-7.93-.88-10.58-.88-31.73-.4-10.59-.1-21.19.88-31.73-.06-5.12.83-10.2,2.64-14.99,1.54-3.27,3.63-6.25,6.17-8.81,2.07-3.08,5.21-5.28,8.81-6.17,4.79-1.81,9.87-2.71,14.99-2.64,10.55-.98,21.15-1.28,31.73-.88M93.94,9.32c-10.88-.39-21.77-.09-32.61.88-6.62-.02-13.2,1.18-19.39,3.52-5.35,1.75-10.19,4.77-14.1,8.82-4.04,3.91-7.07,8.75-8.81,14.1-2.77,6.07-3.98,12.73-3.52,19.39-.98,10.84-1.27,21.74-.89,32.62-.39,10.88-.09,21.77.88,32.61-.02,6.62,1.18,13.2,3.52,19.39,1.74,5.35,4.77,10.19,8.81,14.1,3.91,4.04,8.75,7.07,14.1,8.81,6.2,2.35,12.77,3.54,19.39,3.52,10.84.98,21.74,1.27,32.62.89,10.88.39,21.77.09,32.61-.88,6.62.02,13.2-1.18,19.39-3.52,10.76-3.71,19.21-12.16,22.92-22.92,2.35-6.2,3.54-12.77,3.52-19.39,0-8.82.89-11.46.89-32.62.39-10.88.09-21.77-.88-32.61.02-6.62-1.18-13.2-3.52-19.39-1.74-5.35-4.77-10.19-8.81-14.1-3.91-4.04-8.75-7.07-14.1-8.81-6.2-2.35-12.77-3.54-19.4-3.53-10.84-.97-21.74-1.27-32.61-.88M93.94,48.1c-22.03-.36-40.19,17.2-40.55,39.23,0,.44,0,.88,0,1.31,0,22.39,18.15,40.55,40.55,40.55s40.55-18.15,40.55-40.55-18.15-40.55-40.55-40.55M93.94,115.09c-14.34.26-26.18-11.15-26.44-25.49,0-.32,0-.63,0-.95-.26-14.34,11.15-26.18,25.49-26.44.32,0,.63,0,.95,0,14.34-.26,26.18,11.15,26.44,25.49,0,.32,0,.63,0,.95.26,14.34-11.15,26.18-25.49,26.44-.32,0-.63,0-.95,0M136.25,36.64c-5.35,0-9.7,4.34-9.7,9.7s4.34,9.7,9.7,9.7,9.7-4.34,9.7-9.7c-.05-5.33-4.36-9.65-9.7-9.7"/>
</svg>