<?xml version="1.0" encoding="UTF-8"?>
<svg id="Layer_2" data-name="Layer 2" xmlns="http://www.w3.org/2000/svg" viewBox="0 0 1207.36 304.15">
  <defs>
    <style>
      .cls-1 {
        stroke-width: 0px;
      }

      .cls-1, .cls-2 {
        fill: #000;
      }

      .cls-2 {
        stroke: #000;
        stroke-miterlimit: 10;
        stroke-width: 2px;
      }
    </style>
  </defs>
  <path class="cls-1" d="M19.02,96.95l-.35.52-.12-.07h-.01c-.04-.1-.06-.16-.07-.17l.56-.27Z"/>
  <path class="cls-2" d="M15.12,40.41c2.65-1.54,3.61-4.3,3.61-7.55-.46-11.76-17.27-11.76-17.73,0,0,4.77,3.49,8.67,8.21,8.87l.33.39.03.08c.27.73,24.49,52.22,21.57,66.52h107.41c.13-.92,6.01-47.2,19.74-70.18v-.12c11.27-1.21,10.71-17.31-.66-17.71-9.18.09-12.18,12.16-4.33,16.61.01-.02.02-.03.02-.04.15.07.45.21.59.29,0,0-.01.02-.02.05-.69,1.38-12.7,25.19-29.19,30.81-5.63,1.91-11.2,1.52-16.55-1.16-18.96-9.48-20.98-33.48-20.84-44.52.22-.07.43-.15.65-.25,11.17-4.7,8.07-21.31-4.22-21.5-12.79.25-15.35,17.78-3.4,21.8.46,8.8.18,36.58-20.39,46.86-5.2,2.6-10.59,2.98-16.05,1.12-16.62-5.65-28.71-30.27-28.83-30.52M84.51,102.22c-5.19,0-9.39-8.14-9.39-18.18.51-24.13,18.25-24.12,18.77,0,0,10.04-4.2,18.18-9.39,18.18Z"/>
  <path class="cls-1" d="M19.36,96.43l-.35.52-.35.52-.12-.07h-.01s-.36-.26-.36-.26c.4-.22.78-.47,1.15-.73l.04.02Z"/>
  <g>
    <path class="cls-1" d="M185.83,49.98v17.98h26.55v10.97h-26.55v19.41h30.77v10.97h-41.78V39.14h41.78v10.84h-30.77Z"/>
    <path class="cls-1" d="M296.78,37.62v71.68h-11.01v-38.91l-23.29,37.74h-.09l-23.33-37.78v38.95h-11.01V37.62h.83l33.56,51.01,33.51-51.01h.83Z"/>
    <path class="cls-1" d="M306.92,74.31c0-20.02,16.28-36.39,36.26-36.39s36.3,16.37,36.3,36.39-16.37,36.13-36.34,36.13-36.21-16.28-36.21-36.13ZM368.33,74.22c0-13.88-11.36-25.2-25.2-25.2s-25.11,11.32-25.11,25.2,11.27,25.07,25.11,25.07,25.2-11.27,25.2-25.07Z"/>
    <path class="cls-1" d="M458.3,37.62v71.68h-11.01v-38.91l-23.29,37.74h-.09l-23.33-37.78v38.95h-11.01V37.62h.83l33.56,51.01,33.51-51.01h.83Z"/>
    <path class="cls-1" d="M482.8,49.98v17.98h26.55v10.97h-26.55v19.41h30.77v10.97h-41.78V39.14h41.78v10.84h-30.77Z"/>
    <path class="cls-1" d="M581.43,38.97v71.55h-.52l-44.87-46.88v45.74h-11.01V37.92h.57l44.79,46.79v-45.74h11.06Z"/>
    <path class="cls-1" d="M638.88,50.07h-18.8v59.24h-11.06v-59.24h-18.8v-10.92h48.66v10.92Z"/>
    <path class="cls-1" d="M643.58,96.99l8.7-6.22c3.13,5.48,8.97,8.62,15.71,8.62,7.88,0,13.84-3.79,13.84-9.14,0-6.49-9.23-10.4-17.41-13.93-8.23-3.66-17.37-7.92-17.37-18.93s9.97-19.5,22.59-19.5c10.01,0,17.5,4.83,20.37,12.54l-8.18,5.66c-2.18-4.74-7.01-7.4-12.1-7.4-6.44,0-11.58,4-11.58,8.97,0,5.48,6.49,7.44,15.02,11.1,11.1,4.87,19.72,10.23,19.72,21.28,0,12.45-10.79,20.46-25.03,20.46-11.53,0-20.28-5.4-24.29-13.49Z"/>
    <path class="cls-1" d="M698.99,74.31c0-20.02,16.28-36.39,36.26-36.39s36.3,16.37,36.3,36.39-16.37,36.13-36.34,36.13-36.21-16.28-36.21-36.13ZM760.41,74.22c0-13.88-11.36-25.2-25.2-25.2s-25.11,11.32-25.11,25.2,11.27,25.07,25.11,25.07,25.2-11.27,25.2-25.07Z"/>
    <path class="cls-1" d="M838.05,38.97v71.55h-.52l-44.87-46.88v45.74h-11.01V37.92h.57l44.79,46.79v-45.74h11.06Z"/>
    <path class="cls-1" d="M893.85,98.34v10.97h-42.31V39.14h11.01v59.19h31.29Z"/>
    <path class="cls-1" d="M902.64,39.14h11.01v70.16h-11.01V39.14Z"/>
    <path class="cls-1" d="M983.56,38.97v71.55h-.52l-44.87-46.88v45.74h-11.01V37.92h.57l44.79,46.79v-45.74h11.06Z"/>
    <path class="cls-1" d="M1008.06,49.98v17.98h26.55v10.97h-26.55v19.41h30.77v10.97h-41.78V39.14h41.78v10.84h-30.77Z"/>
    <path class="cls-1" d="M1048.58,103.95c0-4.05,3.35-7.4,7.4-7.4s7.4,3.39,7.4,7.4-3.35,7.36-7.4,7.36-7.4-3.31-7.4-7.36Z"/>
    <path class="cls-1" d="M1071.83,74.27c0-19.76,16.5-36.34,36.21-36.34,9.1.13,17.5,4,24.37,10.71l-6.4,8.66c-4.92-4.92-11.32-8.18-18.19-8.18-12.71,0-24.85,11.14-24.85,25.2s12.32,25.07,24.9,25.07c7.18,0,13.36-3.57,18.19-8.36l6.35,8.88c-6.05,5.96-13.75,10.53-24.2,10.53-19.89,0-36.39-16.37-36.39-36.17Z"/>
    <path class="cls-1" d="M1134.81,74.31c0-20.02,16.28-36.39,36.26-36.39s36.3,16.37,36.3,36.39-16.37,36.13-36.34,36.13-36.21-16.28-36.21-36.13ZM1196.22,74.22c0-13.88-11.36-25.2-25.2-25.2s-25.11,11.32-25.11,25.2,11.27,25.07,25.11,25.07,25.2-11.27,25.2-25.07Z"/>
  </g>
</svg>