<?xml version="1.0" encoding="UTF-8"?>
<svg id="Layer_5" data-name="Layer 5" xmlns="http://www.w3.org/2000/svg" xmlns:xlink="http://www.w3.org/1999/xlink" viewBox="0 0 187.87 176.19">
  <defs>
    <style>
      .cls-1 {
        fill: #000;
      }

      .cls-1, .cls-2 {
        stroke-width: 0px;
      }

      .cls-2 {
        fill: none;
      }

      .cls-3 {
        clip-path: url(#clippath);
      }
    </style>
    <clipPath id="clippath">
      <rect class="cls-2" x="5.94" y="0" width="176" height="176"/>
    </clipPath>
  </defs>
  <g class="cls-3">
    <g id="Search">
      <path id="Path_2" data-name="Path 2" class="cls-1" d="M27.94,77c-.3-30.08,23.84-54.7,53.92-55,.36,0,.72,0,1.08,0,30.08-.3,54.7,23.84,55,53.92,0,.36,0,.72,0,1.08.3,30.08-23.84,54.7-53.92,55-.36,0-.72,0-1.08,0-30.08.3-54.7-23.84-55-53.92,0-.36,0-.72,0-1.08ZM163.24,172.7c4.3,4.21,11.19,4.14,15.4-.16,4.15-4.23,4.15-11.01,0-15.24l-34.1-34.1c10.11-13.27,15.52-29.52,15.4-46.2C160.2,34.74,126.15.26,83.89,0c-.32,0-.63,0-.95,0C40.67-.26,6.2,33.79,5.94,76.05c0,.32,0,.63,0,.95-.26,42.26,33.79,76.74,76.05,77,.32,0,.63,0,.95,0,16.68.12,32.93-5.29,46.2-15.4l34.1,34.1Z"/>
    </g>
  </g>
</svg>