<?xml version="1.0" encoding="UTF-8"?>
<svg id="Layer_4" data-name="Layer 4" xmlns="http://www.w3.org/2000/svg" viewBox="0 0 187.87 176.19">
  <defs>
    <style>
      .cls-1 {
        fill: #000;
        stroke: #000;
        stroke-miterlimit: 10;
        stroke-width: 2px;
      }
    </style>
  </defs>
  <path class="cls-1" d="M16.86,71.77c2.97-1.73,4.05-4.83,4.06-8.48-.52-13.21-19.4-13.21-19.92,0,0,5.36,3.93,9.74,9.22,9.96l.38.44.03.09c.3.82,27.51,58.66,24.24,74.73h120.66c.15-1.03,6.75-53.02,22.18-78.84v-.13c12.66-1.36,12.03-19.45-.74-19.89-10.31.11-13.68,13.66-4.86,18.66.01-.02.02-.04.02-.04.17.08.5.24.66.32,0,0-.01.02-.02.05-.77,1.55-14.26,28.3-32.79,34.61-6.32,2.15-12.58,1.71-18.59-1.3-21.3-10.65-23.57-37.61-23.41-50.01.24-.08.49-.17.73-.28,12.55-5.28,9.06-23.94-4.74-24.15-14.36.28-17.25,19.97-3.82,24.49.52,9.89.21,41.09-22.9,52.64-5.84,2.92-11.9,3.34-18.03,1.25-18.67-6.35-32.25-34.01-32.38-34.29M94.82,141.21c-5.83,0-10.54-9.14-10.54-20.42.58-27.1,20.51-27.1,21.09,0,0,11.28-4.72,20.42-10.54,20.42Z"/>
</svg>